<?xml version="1.0" encoding="utf-8"?>
<!-- Generator: Adobe Illustrator 19.2.1, SVG Export Plug-In . SVG Version: 6.00 Build 0)  -->
<svg version="1.1" id="layer" xmlns="http://www.w3.org/2000/svg" xmlns:xlink="http://www.w3.org/1999/xlink" x="0px" y="0px"
	 viewBox="0 0 652 652" style="enable-background:new 0 0 652 652;" xml:space="preserve">
<style type="text/css">
	.st0{fill:none;}
	.st1{fill:#263B80;}
	.st2{fill:#1DBEF0;}
	.st3{fill:#19BEF0;}
</style>
<g id="Symbols">
	<g id="Navigation" transform="translate(-149.000000, -39.000000)">
		<g id="Group-3" transform="translate(149.000000, 39.000000)">
			<g id="Group">
				<path id="Shape" class="st0" d="M142.9,260.5c-19.4,0-35.1,15.5-35.1,34.7c0,3.3,0.5,6.6,1.4,9.6c-8.8-5.2-19-8.2-30.1-8.2
					c-32.2,0-58.3,25.7-58.3,57.5s26.1,57.5,58.3,57.5s58.3-25.7,58.3-57.5c0-9.5-2.3-18.4-6.4-26.3c3.8,1.3,7.8,2.1,12,2.1
					c19.4,0,35.1-15.5,35.1-34.7C178.1,276,162.3,260.5,142.9,260.5z M79.1,387.9c-19,0-34.4-15.2-34.4-33.9
					c0-18.7,15.4-33.9,34.4-33.9c19,0,34.3,15.2,34.3,33.9C113.5,372.7,98.1,387.9,79.1,387.9z M142.9,317.1
					c-12.3,0-22.3-9.8-22.3-22c0-12.1,10-22,22.3-22c12.3,0,22.3,9.8,22.3,22C165.2,307.3,155.2,317.1,142.9,317.1z"/>
				<path id="Shape_1_" class="st1" d="M233.9,297.6h-21.1c-6.2,0-11.6,3.2-14.8,7.9c0,0.1,0,0.1,0,0.1c-1.8,2.7-2.8,5.9-2.8,9.3
					v0.1c0,0.6,0,1,0.1,1.7c0.9,9.1,9.1,15.6,18.3,15.6h20.2c4.1,0,7.5-3.2,7.5-7.2v-20.2C241.3,300.9,237.9,297.6,233.9,297.6z
					 M212.8,321.3c-3.5,0-6.4-2.8-6.4-6.3c0-3.5,2.9-6.3,6.4-6.3c3.5,0,6.4,2.8,6.4,6.3C219.2,318.4,216.4,321.3,212.8,321.3z"/>
				<g id="Shape_2_" transform="translate(3.454257, 0.000000)">
					<path class="st1" d="M187.5,231.5H63c-18.5,0-33.5,14.8-33.5,33.1v23.9c10.4,0,10.5-8.5,10.5-11.1v-12.8
						c0-12.5,10.4-22.7,23.1-22.7h124.6c12.7,0,23,10.1,23,22.6V286H221v-21.5C221,246.3,206,231.5,187.5,231.5z"/>
					<path class="st1" d="M210.5,342.8v20.6c0,12.5-10.4,22.7-23.1,22.7h-31.9c-9.2,0-10.7,7.1-11.5,10.3h43.5
						c18.5,0,33.4-14.8,33.4-33.1v-20.6v-1.1h-10.5L210.5,342.8L210.5,342.8z"/>
				</g>
				<path id="Shape_3_" class="st2" d="M142.9,260.5c-19.4,0-35.1,15.5-35.1,34.7c0,3.3,0.5,6.6,1.4,9.6c-8.8-5.2-19-8.2-30.1-8.2
					c-32.2,0-58.3,25.7-58.3,57.5s26.1,57.5,58.3,57.5s58.3-25.7,58.3-57.5c0-9.5-2.3-18.4-6.4-26.3c3.8,1.3,7.8,2.1,12,2.1
					c19.4,0,35.1-15.5,35.1-34.7C178.1,276,162.3,260.5,142.9,260.5z M79.1,387.9c-19,0-34.4-15.2-34.4-33.9
					c0-18.7,15.4-33.9,34.4-33.9c19,0,34.3,15.2,34.3,33.9C113.5,372.7,98.1,387.9,79.1,387.9z M142.9,317.1
					c-12.3,0-22.3-9.8-22.3-22c0-12.1,10-22,22.3-22c12.3,0,22.3,9.8,22.3,22C165.2,307.3,155.2,317.1,142.9,317.1z"/>
			</g>
			<g id="Group_1_" transform="translate(79.000000, 0.000000)">
				<polygon id="Shape_4_" class="st1" points="245.2,339.2 263.2,339.2 274.3,374 274.5,374 283.8,339.2 302.2,339.2 312.3,374 
					312.5,374 322.8,339.2 339.8,339.2 320.4,394.7 303.8,394.7 292.4,357.8 292.2,357.8 282.1,394.7 265.2,394.7 				"/>
				<path id="Shape_5_" class="st1" d="M375.5,387.7h-0.2c-1.9,3-4.4,5.1-7.5,6.4c-3.1,1.3-6.4,1.9-9.8,1.9c-2.6,0-5-0.3-7.3-1.1
					c-2.4-0.7-4.5-1.8-6.2-3.3c-1.8-1.4-3.2-3.2-4.3-5.4c-1.1-2.1-1.6-4.6-1.6-7.4c0-3.2,0.6-5.9,1.7-8.1c1.2-2.2,2.7-4,4.7-5.5
					c2-1.4,4.3-2.6,6.8-3.4c2.6-0.8,5.2-1.4,7.9-1.8c2.7-0.4,5.5-0.6,8.2-0.7c2.7-0.1,5.2-0.1,7.6-0.1c0-3.1-1.1-5.5-3.2-7.3
					c-2.1-1.8-4.7-2.7-7.6-2.7c-2.8,0-5.3,0.6-7.6,1.8c-2.3,1.2-4.3,2.8-6.2,4.9l-9-9.4c3.1-3,6.8-5.2,11-6.7
					c4.2-1.5,8.5-2.2,13-2.2c5,0,9,0.6,12.2,1.9c3.2,1.3,5.7,3.1,7.6,5.5c1.9,2.4,3.2,5.4,4,9c0.7,3.5,1.1,7.6,1.1,12.3v28.2h-15.5
					L375.5,387.7L375.5,387.7z M371.4,370.3c-1.3,0-2.8,0-4.8,0.2c-1.9,0.1-3.8,0.5-5.5,1c-1.7,0.5-3.3,1.3-4.5,2.4
					c-1.2,1-1.9,2.6-1.9,4.4c0,2.1,0.9,3.6,2.6,4.6c1.7,1,3.5,1.5,5.4,1.5c1.7,0,3.3-0.2,4.8-0.7s2.9-1.1,4.1-2
					c1.2-0.8,2.1-1.9,2.8-3.2c0.7-1.3,1.1-2.8,1.1-4.6v-3.7L371.4,370.3L371.4,370.3z"/>
				<polygon id="Shape_6_" class="st1" points="396.4,324.5 413.2,324.5 413.2,394.7 396.4,394.7 				"/>
				<polygon id="Shape_7_" class="st1" points="419.7,324.5 436.5,324.5 436.5,394.7 419.7,394.7 				"/>
				<path id="Shape_8_" class="st1" d="M494.8,385.1c-2.7,3.5-6.1,6.2-10.2,8.1c-4.1,1.9-8.4,2.9-12.8,2.9c-4.2,0-8.1-0.7-11.9-2.1
					c-3.7-1.3-6.9-3.3-9.7-5.9c-2.7-2.6-4.9-5.6-6.4-9.2c-1.6-3.6-2.4-7.6-2.4-12c0-4.4,0.8-8.4,2.4-12c1.6-3.6,3.7-6.6,6.4-9.2
					c2.7-2.6,5.9-4.5,9.7-5.9c3.7-1.4,7.7-2.1,11.9-2.1c3.9,0,7.4,0.7,10.6,2.1c3.2,1.3,5.9,3.3,8.1,5.9c2.2,2.6,3.9,5.6,5.1,9.2
					c1.2,3.6,1.8,7.6,1.8,12v5.4h-39.1c0.7,3.3,2.1,5.9,4.4,7.8c2.2,1.9,5,2.9,8.3,2.9c2.8,0,5.1-0.6,7-1.9c1.9-1.3,3.6-2.9,5-4.9
					L494.8,385.1z M480.5,360.6c0.1-2.9-0.9-5.4-2.8-7.4c-1.9-2.1-4.5-3.1-7.5-3.1c-1.9,0-3.5,0.3-5,0.9c-1.4,0.6-2.6,1.4-3.6,2.3
					c-1,1-1.8,2.1-2.4,3.3c-0.6,1.3-0.9,2.6-0.9,3.9H480.5z"/>
				<path id="Shape_9_" class="st1" d="M541.4,352.9h-14.8v18.5c0,1.5,0.1,2.9,0.2,4.2c0.2,1.3,0.5,2.3,1,3.3
					c0.5,0.9,1.3,1.6,2.4,2.1s2.5,0.7,4.3,0.7c0.9,0,2.1-0.1,3.5-0.3c1.5-0.2,2.6-0.6,3.3-1.3v14.3c-1.9,0.7-3.8,1.1-5.9,1.4
					c-2,0.2-4,0.3-5.9,0.3c-2.8,0-5.5-0.3-7.9-0.9c-2.4-0.6-4.5-1.6-6.3-2.9c-1.8-1.3-3.2-3.1-4.2-5.2c-1-2.1-1.5-4.7-1.5-7.8v-26.4
					h-10.8v-13.7h10.8v-14.6h16.8v14.6h14.8L541.4,352.9L541.4,352.9z"/>
				<path id="Shape_10_" class="st3" d="M480.2,277.2h-14.8v18.5c0,1.5,0.1,2.9,0.2,4.2c0.2,1.3,0.5,2.3,1,3.3
					c0.5,0.9,1.3,1.6,2.4,2.1c1.1,0.5,2.5,0.7,4.3,0.7c0.9,0,2.1-0.1,3.5-0.3c1.5-0.2,2.6-0.6,3.3-1.3v14.3
					c-1.9,0.7-3.8,1.1-5.9,1.4c-2,0.2-4,0.3-5.9,0.3c-2.8,0-5.5-0.3-7.9-0.9c-2.4-0.6-4.5-1.6-6.3-2.9c-1.8-1.3-3.2-3.1-4.2-5.2
					c-1-2.1-1.5-4.7-1.5-7.8v-26.4H439v-13.7h9.4v-14.6h16.8v14.6h14.8L480.2,277.2L480.2,277.2z"/>
				<path id="Shape_11_" class="st3" d="M211.9,246c0-2.7,0.9-5.1,2.8-7s4.2-2.9,6.9-2.9c2.7,0,5,1,6.9,2.9s2.8,4.3,2.8,7
					s-0.9,5.1-2.8,7c-1.9,2-4.2,2.9-6.9,2.9c-2.7,0-5-1-6.9-2.9C212.9,251.2,211.9,248.8,211.9,246z M213.2,263.5h16.8V319h-16.8
					V263.5z"/>
				<path id="Shape_12_" class="st3" d="M236.6,263.5h16.2v7.6h0.2c0.5-1.1,1.3-2.1,2.2-3.2c0.9-1,2.1-2,3.5-2.9
					c1.4-0.8,2.9-1.5,4.6-2.1c1.7-0.5,3.6-0.8,5.6-0.8c4.3,0,7.7,0.7,10.3,2c2.6,1.3,4.7,3.1,6.1,5.5c1.4,2.3,2.4,5.1,3,8.4
					c0.5,3.2,0.8,6.7,0.8,10.4v30.6h-16.8v-27.2c0-1.6,0-3.2-0.2-5c-0.1-1.7-0.5-3.3-1-4.7c-0.6-1.4-1.4-2.6-2.6-3.5
					c-1.2-0.9-2.8-1.4-5-1.4c-2.2,0-3.9,0.4-5.3,1.2c-1.3,0.8-2.4,1.8-3.1,3.2c-0.7,1.3-1.2,2.9-1.4,4.5c-0.2,1.7-0.3,3.4-0.3,5.2
					v27.6h-16.8L236.6,263.5L236.6,263.5z"/>
				<path id="Shape_13_" class="st3" d="M301.3,277.2h-11.1v-13.7h11.1v-9.8c0-3.1,0.2-5.9,0.8-8.6c0.5-2.7,1.5-5.1,3-7.1
					c1.5-2.1,3.7-3.7,6.5-4.9c2.8-1.2,6.5-1.8,11.1-1.8c1.7,0,3.4,0.1,5,0.2c1.7,0.2,3.3,0.4,4.8,0.8l-0.8,14.5
					c-0.9-0.4-1.9-0.7-2.7-0.9c-0.8-0.2-1.7-0.3-2.8-0.3c-2.7,0-4.7,0.6-6.1,1.8c-1.3,1.2-2,3.6-2,7.3v8.8h12.5v13.7h-12.5v41.8
					h-16.8V277.2z M335.9,246c0-2.7,0.9-5.1,2.8-7s4.2-2.9,6.9-2.9c2.7,0,5,1,6.9,2.9c1.9,1.9,2.8,4.3,2.8,7s-0.9,5.1-2.8,7
					c-1.9,2-4.2,2.9-6.9,2.9c-2.7,0-5-1-6.9-2.9C336.9,251.2,335.9,248.8,335.9,246z M337.2,263.5h16.8V319h-16.8V263.5z"/>
				<path id="Shape_14_" class="st3" d="M360.6,263.5h16.2v7.6h0.2c0.5-1.1,1.3-2.1,2.2-3.2c0.9-1,2.1-2,3.5-2.9
					c1.4-0.8,2.9-1.5,4.6-2.1c1.7-0.5,3.6-0.8,5.6-0.8c4.3,0,7.7,0.7,10.3,2c2.6,1.3,4.7,3.1,6.1,5.5c1.4,2.3,2.4,5.1,3,8.4
					c0.5,3.2,0.8,6.7,0.8,10.4v30.6h-16.8v-27.2c0-1.6,0-3.2-0.2-5c-0.1-1.7-0.5-3.3-1-4.7c-0.6-1.4-1.4-2.6-2.6-3.5
					c-1.2-0.9-2.8-1.4-5-1.4c-2.2,0-3.9,0.4-5.3,1.2c-1.3,0.8-2.4,1.8-3.1,3.2c-0.7,1.3-1.2,2.9-1.4,4.5c-0.2,1.7-0.3,3.4-0.3,5.2
					v27.6h-16.8L360.6,263.5L360.6,263.5z"/>
				<path id="Shape_15_" class="st3" d="M418.3,246c0-2.7,0.9-5.1,2.8-7s4.2-2.9,6.9-2.9c2.7,0,5,1,6.9,2.9s2.8,4.3,2.8,7
					s-0.9,5.1-2.8,7c-1.9,2-4.2,2.9-6.9,2.9c-2.7,0-5-1-6.9-2.9C419.3,251.2,418.3,248.8,418.3,246z"/>
				<rect id="Rectangle-path" x="419.7" y="263.5" class="st3" width="16.8" height="55.5"/>
				<path id="Shape_16_" class="st3" d="M481.1,291.3c0-4.4,0.8-8.4,2.4-12c1.6-3.6,3.7-6.6,6.5-9.2c2.7-2.6,5.9-4.5,9.7-5.9
					c3.7-1.4,7.6-2.1,11.9-2.1c4.2,0,8.1,0.7,11.9,2.1c3.7,1.3,6.9,3.3,9.7,5.9c2.7,2.6,4.9,5.6,6.5,9.2c1.6,3.6,2.4,7.6,2.4,12
					s-0.8,8.4-2.4,12c-1.6,3.6-3.7,6.6-6.5,9.2c-2.7,2.6-5.9,4.5-9.7,5.9s-7.7,2.1-11.9,2.1c-4.2,0-8.1-0.7-11.9-2.1
					c-3.7-1.3-6.9-3.3-9.7-5.9c-2.7-2.6-4.9-5.6-6.5-9.2C481.9,299.7,481.1,295.7,481.1,291.3z M498,291.3c0,4.2,1.2,7.6,3.6,10.2
					c2.4,2.6,5.7,3.9,10,3.9c4.3,0,7.6-1.3,9.9-3.9c2.4-2.6,3.6-6,3.6-10.2s-1.2-7.6-3.6-10.2c-2.4-2.6-5.7-3.9-9.9-3.9
					c-4.3,0-7.6,1.3-10,3.9C499.2,283.7,498,287.1,498,291.3z"/>
			</g>
		</g>
	</g>
</g>
</svg>
